<svg xmlns="http://www.w3.org/2000/svg" width="285" height="32" viewBox="0 0 285 32"><g transform="translate(-429 -579)"><g transform="translate(-97 168)"><rect width="285" height="32" rx="5" transform="translate(526 411)" fill="#ff7cb9"/></g><text transform="translate(563 599)" fill="#fff" font-size="12" font-family="SFUIDisplay-Medium, SF UI Display" font-weight="500"><tspan x="0" y="0">Dribbble</tspan></text><g transform="translate(541 587)"><path d="M13,0H3A3,3,0,0,0,0,3V13a3,3,0,0,0,3,3H13a3,3,0,0,0,3-3V3A3,3,0,0,0,13,0ZM8,13.986A5.987,5.987,0,1,1,13.986,8,5.995,5.995,0,0,1,8,13.986Z" fill="#fff"/><path d="M99.884,110.351a32.686,32.686,0,0,0-1.9-2.958,5.131,5.131,0,0,0-2.832,3.581A19.088,19.088,0,0,0,99.884,110.351Z" transform="translate(-92.162 -104.014)" fill="#fff"/><path d="M97.164,227.347l.2-.06c-.129-.291-.269-.582-.414-.868a18.858,18.858,0,0,1-5.257.727l0,.156a5.1,5.1,0,0,0,1.315,3.42A8.112,8.112,0,0,1,97.164,227.347Z" transform="translate(-88.807 -219.295)" fill="#fff"/><path d="M289.284,153.746c.119.244.233.492.34.741l.109.264a11.93,11.93,0,0,1,3.561.165,5.082,5.082,0,0,0-1.152-3.186A6.831,6.831,0,0,1,289.284,153.746Z" transform="translate(-280.182 -146.956)" fill="#fff"/><path d="M158.507,280.9A7.005,7.005,0,0,0,154.5,284.1a5.11,5.11,0,0,0,5.137.673,21.246,21.246,0,0,0-1.091-3.878Z" transform="translate(-149.634 -272.055)" fill="#fff"/><path d="M220.774,93.235a5.11,5.11,0,0,0-4.589-1.147,27.532,27.532,0,0,1,1.908,2.994A5.778,5.778,0,0,0,220.774,93.235Z" transform="translate(-209.383 -89.053)" fill="#fff"/><path d="M313.471,270.835a21.961,21.961,0,0,1,.994,3.646,5.12,5.12,0,0,0,2.19-3.429A7.477,7.477,0,0,0,313.471,270.835Z" transform="translate(-303.608 -262.233)" fill="#fff"/></g></g></svg>