<svg xmlns="http://www.w3.org/2000/svg" width="285" height="32" viewBox="0 0 285 32"><g transform="translate(-429 -523)"><g transform="translate(-97 112)"><rect width="285" height="32" rx="5" transform="translate(526 411)" fill="#1b1f23"/></g><text transform="translate(563 543)" fill="#fff" font-size="12" font-family="SFUIDisplay-Medium, SF UI Display" font-weight="500"><tspan x="0" y="0">Github</tspan></text><g transform="translate(541 531)"><path d="M154.258,352.514q-.167.031-.146.156t.187.083q.167-.042.146-.146T154.258,352.514Z" transform="translate(-148.487 -339.649)" fill="#fff"/><path d="M137.5,354.811c-.111,0-.167.038-.167.115s.059.128.177.114.167-.038.167-.114S137.615,354.8,137.5,354.811Z" transform="translate(-132.32 -341.863)" fill="#fff"/><path d="M119.42,351.8q-.042.115.135.156.156.062.2-.063t-.135-.167C119.514,351.7,119.448,351.727,119.42,351.8Z" transform="translate(-115.055 -338.887)" fill="#fff"/><path d="M15.12.88A2.89,2.89,0,0,0,13,0H3A2.89,2.89,0,0,0,.88.88,2.89,2.89,0,0,0,0,3V13a2.889,2.889,0,0,0,.88,2.12A2.89,2.89,0,0,0,3,16H5.333a2.817,2.817,0,0,0,.344-.015.4.4,0,0,0,.229-.136.485.485,0,0,0,.115-.349q0-.031-.005-.708T6.01,13.719l-.24.042a3.066,3.066,0,0,1-.578.036,4.448,4.448,0,0,1-.724-.073,1.623,1.623,0,0,1-.7-.312,1.322,1.322,0,0,1-.458-.641l-.1-.24A2.6,2.6,0,0,0,2.88,12a1.257,1.257,0,0,0-.453-.4l-.073-.052a.766.766,0,0,1-.135-.125.579.579,0,0,1-.094-.146q-.031-.073.052-.12a.677.677,0,0,1,.3-.047l.208.031a1.519,1.519,0,0,1,.516.25,1.681,1.681,0,0,1,.505.542,1.836,1.836,0,0,0,.578.651,1.226,1.226,0,0,0,.682.224,2.959,2.959,0,0,0,.594-.052,2.074,2.074,0,0,0,.469-.156,1.688,1.688,0,0,1,.51-1.073,7.133,7.133,0,0,1-1.068-.188,4.255,4.255,0,0,1-.979-.406,2.8,2.8,0,0,1-.839-.7,3.356,3.356,0,0,1-.547-1.094A5.2,5.2,0,0,1,2.9,7.583a3.038,3.038,0,0,1,.823-2.146,2.8,2.8,0,0,1,.073-2.125,1.46,1.46,0,0,1,.9.141,6.282,6.282,0,0,1,.87.4q.276.166.443.281a7.521,7.521,0,0,1,4,0l.4-.25a5.6,5.6,0,0,1,.958-.458,1.365,1.365,0,0,1,.844-.115,2.773,2.773,0,0,1,.083,2.125A3.039,3.039,0,0,1,13.1,7.583a5.252,5.252,0,0,1-.214,1.568,3.218,3.218,0,0,1-.552,1.094,2.913,2.913,0,0,1-.844.693,4.25,4.25,0,0,1-.979.406,7.128,7.128,0,0,1-1.068.188A1.855,1.855,0,0,1,9.99,13.01V15.5a.67.67,0,0,0,.052.286.288.288,0,0,0,.167.151.923.923,0,0,0,.2.052,2.338,2.338,0,0,0,.255.01H13a3.005,3.005,0,0,0,3-3V3A2.89,2.89,0,0,0,15.12.88Z" fill="#fff"/><path d="M85.951,318.532q-.073.052.021.167t.167.031q.073-.052-.021-.167Q86.014,318.47,85.951,318.532Z" transform="translate(-82.785 -306.886)" fill="#fff"/><path d="M77.184,311.193q-.031.073.073.125a.089.089,0,0,0,.135-.021q.031-.073-.073-.125Q77.215,311.141,77.184,311.193Z" transform="translate(-74.361 -299.808)" fill="#fff"/><path d="M94.407,329.655q-.094.052,0,.187t.177.073q.094-.073,0-.2C94.528,329.627,94.469,329.606,94.407,329.655Z" transform="translate(-90.917 -317.603)" fill="#fff"/><path d="M104.627,342.115c-.063.056-.049.121.042.2s.153.094.208.031.042-.121-.042-.2S104.682,342.053,104.627,342.115Z" transform="translate(-100.772 -329.594)" fill="#fff"/></g></g></svg>