<svg xmlns="http://www.w3.org/2000/svg" width="285" height="32" viewBox="0 0 285 32"><g transform="translate(-429 -467)"><g transform="translate(-97 56)"><rect width="285" height="32" rx="5" transform="translate(526 411)" fill="#f44336"/></g><text transform="translate(563 487)" fill="#fff" font-size="12" font-family="SFUIDisplay-Medium, SF UI Display" font-weight="500"><tspan x="0" y="0">Gmail</tspan></text><g transform="translate(539 425)"><g transform="translate(0 51)"><path d="M16.657,51H1.851A1.856,1.856,0,0,0,0,52.851v11.1a1.856,1.856,0,0,0,1.851,1.851H16.657a1.856,1.856,0,0,0,1.851-1.851v-11.1A1.856,1.856,0,0,0,16.657,51Zm0,12.955H14.806V55.812L9.254,59.329,3.7,55.812v8.143H1.851v-11.1h1.11l6.293,3.887,6.293-3.887h1.11Z" transform="translate(0 -51)" fill="#fff"/></g></g></g></svg>