<svg xmlns="http://www.w3.org/2000/svg" width="285" height="32" viewBox="0 0 285 32"><g transform="translate(-526 -411)"><rect width="285" height="32" rx="5" transform="translate(526 411)" fill="#0077b7"/><text transform="translate(682 431)" fill="#fff" font-size="12" font-family="SFUIDisplay-Medium, SF UI Display" font-weight="500"><tspan x="-22.424" y="0">LinkedIn</tspan></text><path d="M14.553,0H1.447A1.447,1.447,0,0,0,0,1.447V14.553A1.447,1.447,0,0,0,1.447,16H14.553A1.447,1.447,0,0,0,16,14.553V1.447A1.447,1.447,0,0,0,14.553,0Zm-9.6,13.815a.421.421,0,0,1-.421.421H2.737a.421.421,0,0,1-.421-.421V6.3a.421.421,0,0,1,.421-.421H4.53a.421.421,0,0,1,.421.421ZM3.633,5.17a1.7,1.7,0,1,1,1.7-1.7A1.7,1.7,0,0,1,3.633,5.17Zm10.687,8.679a.387.387,0,0,1-.387.387H12.01a.387.387,0,0,1-.387-.387V10.324c0-.526.154-2.3-1.374-2.3-1.186,0-1.426,1.217-1.475,1.764v4.066a.387.387,0,0,1-.387.387H6.525a.387.387,0,0,1-.387-.387V6.266a.387.387,0,0,1,.387-.387H8.386a.387.387,0,0,1,.387.387v.656a2.641,2.641,0,0,1,2.484-1.169c3.081,0,3.063,2.878,3.063,4.46v3.638Z" transform="translate(638 419)" fill="#fff"/></g></svg>