<svg xmlns="http://www.w3.org/2000/svg" width="286.721" height="81.698" viewBox="0 0 286.721 81.698"><g transform="translate(-554.548 -244.261)"><path d="M595.4,244.261a40.849,40.849,0,1,0,40.849,40.849A40.849,40.849,0,0,0,595.4,244.261Zm5.555,28.805a4.3,4.3,0,0,1,6.178,0,4.547,4.547,0,0,1,0,6.324,4.3,4.3,0,0,1-6.178,0A4.546,4.546,0,0,1,600.951,273.066Zm-29.6,17.453a4.3,4.3,0,0,1-1.045-6.089l16.94-23.377a4.545,4.545,0,0,1,6.232-1.07,4.3,4.3,0,0,1,1.045,6.088l-16.94,23.378A4.546,4.546,0,0,1,571.353,290.519Zm9.424,9.522a4.546,4.546,0,0,1,0-6.323l11.414-11.685a4.3,4.3,0,0,1,6.179,0,4.549,4.549,0,0,1,0,6.324l-11.415,11.684A4.3,4.3,0,0,1,580.777,300.041Zm38.676-6.782L596.076,310.2a4.3,4.3,0,0,1-6.088-1.045,4.546,4.546,0,0,1,1.069-6.233l23.377-16.94a4.3,4.3,0,0,1,6.089,1.045A4.545,4.545,0,0,1,619.453,293.259Z" transform="translate(0 0)" fill="#ff503a"/><g transform="translate(654.619 262.012)"><path d="M664.626,262.947a4.771,4.771,0,1,0,3.339,1.4A4.577,4.577,0,0,0,664.626,262.947Z" transform="translate(-659.889 -262.947)" fill="#fff"/><path d="M664.671,276.3a3.823,3.823,0,0,0-2.754,1.07,3.743,3.743,0,0,0-1.122,2.807V305.7a3.931,3.931,0,0,0,6.681,2.754,3.822,3.822,0,0,0,1.071-2.754V280.172a3.708,3.708,0,0,0-3.876-3.877Z" transform="translate(-659.934 -263.615)" fill="#fff"/><path d="M707.054,277.8a15.664,15.664,0,0,0-7.537-1.808,14.978,14.978,0,0,0-7.283,1.781,14.46,14.46,0,0,0-1.7,1.089,3.567,3.567,0,0,0-.9-1.5,4.115,4.115,0,0,0-5.549-.01,3.745,3.745,0,0,0-1.121,2.806v25.59a3.932,3.932,0,0,0,6.682,2.754,3.822,3.822,0,0,0,1.07-2.754V289.566a5.393,5.393,0,0,1,.976-3.212,7.225,7.225,0,0,1,2.744-2.307,8.718,8.718,0,0,1,3.937-.876,9.578,9.578,0,0,1,4.255.905,6.6,6.6,0,0,1,2.841,2.7,9.621,9.621,0,0,1,1.077,4.857v14.116a3.876,3.876,0,1,0,7.752,0V291.631a17.4,17.4,0,0,0-1.926-8.492A13.192,13.192,0,0,0,707.054,277.8Z" transform="translate(-661.043 -263.6)" fill="#fff"/><path d="M742.789,301.417h-1.951a2.924,2.924,0,0,1-2.362-1.2,4.924,4.924,0,0,1-1.049-3.243V283.751h3.927a3.69,3.69,0,0,0,2.594-.94A3.212,3.212,0,0,0,745,280.392a3.3,3.3,0,0,0-1.053-2.535,3.691,3.691,0,0,0-2.593-.94h-3.927V269.6a3.82,3.82,0,1,0-7.638,0v7.312H728.1a3.694,3.694,0,0,0-2.6.94,3.3,3.3,0,0,0-1.051,2.535,3.214,3.214,0,0,0,1.051,2.419,3.69,3.69,0,0,0,2.6.94h1.689v13.223a13.068,13.068,0,0,0,1.427,6.12,11.252,11.252,0,0,0,3.946,4.349,10.379,10.379,0,0,0,5.675,1.612h1.033a4.577,4.577,0,0,0,3.054-1.029,3.555,3.555,0,0,0,1.281-2.789,3.923,3.923,0,0,0-.959-2.7A3.226,3.226,0,0,0,742.789,301.417Z" transform="translate(-663.119 -263.089)" fill="#fff"/><path d="M779.414,277.209a10.21,10.21,0,0,0-5.659-1.276,13.694,13.694,0,0,0-6.775,1.728,13.85,13.85,0,0,0-2.014,1.367,3.368,3.368,0,0,0-.9-1.757,3.841,3.841,0,0,0-2.822-.995,3.538,3.538,0,0,0-3.819,3.82v25.647a3.765,3.765,0,0,0,1.036,2.836,3.862,3.862,0,0,0,2.782.982,3.766,3.766,0,0,0,2.836-1.038,3.856,3.856,0,0,0,.983-2.78V288.99a5,5,0,0,1,1.421-3.695,8.037,8.037,0,0,1,4.14-2.09,15.219,15.219,0,0,1,6.186.112,4.363,4.363,0,0,0,1.76.065,3.234,3.234,0,0,0,1.577-.767,3.1,3.1,0,0,0,.95-1.708C781.362,279.9,781.28,278.443,779.414,277.209Z" transform="translate(-664.769 -263.597)" fill="#fff"/><path d="M813.3,277.209a10.21,10.21,0,0,0-5.659-1.276,13.69,13.69,0,0,0-6.775,1.728,13.838,13.838,0,0,0-2.014,1.367,3.369,3.369,0,0,0-.9-1.757,3.841,3.841,0,0,0-2.823-.995,3.539,3.539,0,0,0-3.82,3.82v25.647a3.765,3.765,0,0,0,1.037,2.836,3.86,3.86,0,0,0,2.782.982,3.767,3.767,0,0,0,2.836-1.038,3.855,3.855,0,0,0,.982-2.78V288.99a5,5,0,0,1,1.422-3.695,8.034,8.034,0,0,1,4.14-2.09,15.218,15.218,0,0,1,6.186.112,4.366,4.366,0,0,0,1.76.065,3.226,3.226,0,0,0,1.576-.767,3.084,3.084,0,0,0,.95-1.708C815.245,279.9,815.163,278.443,813.3,277.209Z" transform="translate(-666.464 -263.597)" fill="#fff"/><path d="M852.442,284.194a15.776,15.776,0,0,0-5.948-5.978,18.378,18.378,0,0,0-17.3,0,15.758,15.758,0,0,0-5.948,5.978,18.726,18.726,0,0,0,0,17.463,15.753,15.753,0,0,0,5.948,5.978,18.5,18.5,0,0,0,17.354,0,15.569,15.569,0,0,0,5.922-5.984,18.828,18.828,0,0,0-.031-17.458Zm-14.568,18.54a9.164,9.164,0,0,1-4.789-1.242,8.934,8.934,0,0,1-3.272-3.428,10.509,10.509,0,0,1-1.2-5.109,10.675,10.675,0,0,1,1.2-5.143,8.877,8.877,0,0,1,3.269-3.452,9.851,9.851,0,0,1,9.579,0A8.7,8.7,0,0,1,845.9,287.8a10.9,10.9,0,0,1,1.181,5.151,10.718,10.718,0,0,1-1.179,5.117,8.736,8.736,0,0,1-3.238,3.421A9.174,9.174,0,0,1,837.874,302.734Z" transform="translate(-667.953 -263.603)" fill="#fff"/></g></g></svg>